<svg width="40" height="40" viewBox="0 0 40 40" fill="none" xmlns="http://www.w3.org/2000/svg">
<path d="M25.4358 19.591C25.4358 22.8236 22.8237 25.4357 19.5911 25.4357C16.3586 25.4357 13.7464 22.8236 13.7464 19.591C13.7464 16.3585 16.3586 13.7463 19.5911 13.7463C22.8237 13.7463 25.4358 16.3585 25.4358 19.591Z" stroke="#FAFAFA" stroke-width="2.44889" stroke-linecap="round" stroke-linejoin="round"/>
<path d="M19.5912 33.0927C25.3543 33.0927 30.7255 29.6969 34.4642 23.8196C35.9335 21.5176 35.9335 17.6484 34.4642 15.3464C30.7255 9.46904 25.3543 6.07324 19.5912 6.07324C13.8281 6.07324 8.4569 9.46904 4.71825 15.3464C3.24891 17.6484 3.24891 21.5176 4.71825 23.8196C8.4569 29.6969 13.8281 33.0927 19.5912 33.0927Z" stroke="#FAFAFA" stroke-width="2.44889" stroke-linecap="round" stroke-linejoin="round"/>
</svg>
